<?xml version="1.0" encoding="UTF-8"?>
<svg id="Layer_2" data-name="Layer 2" xmlns="http://www.w3.org/2000/svg" viewBox="0 0 531.1 553.52">
  <defs>
    <style>
      .cls-1 {
        fill: #bfe3a6;
      }
    </style>
  </defs>
  <g id="Layer_1-2" data-name="Layer 1">
    <g>
      <path class="cls-1" d="m54.41,466.62l-.73.69c33.43,35.24,75.28,61.07,121.03,74.71l.29-.96c-45.58-13.58-87.28-39.32-120.59-74.43Z"/>
      <path class="cls-1" d="m254.35,552.52c-19.6,0-39.12-2.03-58.01-6.03l-.21.98c18.95,4.02,38.54,6.05,58.21,6.05,79.32,0,155-34.25,207.64-93.96l-.75-.66c-52.44,59.5-127.85,93.63-206.89,93.63Z"/>
      <path class="cls-1" d="m473.97,108.53l-.79.61c37.24,48.51,56.93,106.47,56.93,167.62,0,48.82-12.98,96.82-37.55,138.81l.86.51c24.65-42.15,37.68-90.32,37.68-139.31,0-61.37-19.76-119.55-57.13-168.23Z"/>
      <path class="cls-1" d="m254.35,1c61.9,0,120.42,20.12,169.25,58.19l.62-.79C375.21,20.19,316.47,0,254.35,0c-5.3,0-10.67.15-15.94.45l.06,1c5.25-.3,10.6-.45,15.88-.45Z"/>
      <path class="cls-1" d="m196.08,7.19l-.21-.98C108.64,25.05,35.42,85.41,0,167.66l.92.4C36.21,86.1,109.16,25.96,196.08,7.19Z"/>
      <path class="cls-1" d="m254.35,517.6c133.03,0,240.84-107.81,240.84-240.84S387.38,35.92,254.35,35.92,13.51,143.73,13.51,276.76c0,17.21,1.81,34.04,5.24,50.22,9.39,44.24,30.92,84.01,60.99,115.6,43.85,46.22,105.86,75.01,174.61,75.01Z"/>
    </g>
  </g>
</svg>