<?xml version="1.0" encoding="UTF-8"?>
<svg id="Layer_2" data-name="Layer 2" xmlns="http://www.w3.org/2000/svg" viewBox="0 0 531.1 553.52">
  <defs>
    <style>
      .cls-1 {
        fill: #e4f7e7;
      }

      .cls-2 {
        fill: #9bd1a6;
      }

      .cls-3 {
        fill: #fff8f2;
      }

      .cls-4 {
        fill: #f4e9e1;
      }
    </style>
  </defs>
  <g id="Layer_1-2" data-name="Layer 1">
    <path class="cls-4" d="m54.41,466.62l-.73.69c33.43,35.24,75.28,61.07,121.03,74.71l.29-.96c-45.58-13.58-87.28-39.32-120.59-74.43Z"/>
    <path class="cls-4" d="m254.35,552.52c-19.6,0-39.12-2.03-58.01-6.03l-.21.98c18.95,4.02,38.54,6.05,58.21,6.05,79.32,0,155-34.25,207.64-93.96l-.75-.66c-52.44,59.5-127.85,93.63-206.89,93.63Z"/>
    <path class="cls-4" d="m473.97,108.53l-.79.61c37.24,48.51,56.93,106.47,56.93,167.62,0,48.82-12.98,96.82-37.55,138.81l.86.51c24.65-42.15,37.68-90.32,37.68-139.31,0-61.37-19.76-119.55-57.13-168.23Z"/>
    <path class="cls-4" d="m254.35,1c61.9,0,120.42,20.12,169.25,58.19l.62-.79C375.21,20.19,316.47,0,254.35,0c-5.3,0-10.67.15-15.94.45l.06,1c5.25-.3,10.6-.45,15.88-.45Z"/>
    <path class="cls-4" d="m196.08,7.19l-.21-.98C108.64,25.05,35.42,85.41,0,167.66l.92.4C36.21,86.1,109.16,25.96,196.08,7.19Z"/>
    <path class="cls-3" d="m456.96,407c-.19.26-.28.4-.27.42.09-.14.18-.28.27-.42Z"/>
    <g>
      <path class="cls-3" d="m174.37,296.83l16.91-26.99,12.87-15.21s94.99-10.47,175.06,16.17l6.77-2.2,14.9-3.77,19.76-4.37,43.54-6.24,6.34,45.34c8.66.73,16.45,2.58,22.97,5.91,1.12-9.42,1.7-19,1.7-28.72,0-133.03-107.81-240.84-240.84-240.84S13.51,143.73,13.51,276.76c0,15.25,1.42,30.19,4.13,44.65l14.64-37.97,142.09,13.38Z"/>
      <path class="cls-2" d="m254.35,517.6c84.86,0,159.45-43.88,202.35-110.18-.33-.43-.68-.85-1.06-1.27-29.15-32.76-98.54-57.79-134.92-74.36l-71.11,1.29-83.99-22.3,8.74-13.95-142.09-13.38-14.64,37.97c.35,1.86.71,3.72,1.11,5.57,9.39,44.24,30.92,84.01,60.99,115.6,43.85,46.22,105.86,75.01,174.61,75.01Z"/>
      <path class="cls-2" d="m474.63,329l-153.91,2.79c36.38,16.57,105.77,41.59,134.92,74.36.37.42.72.85,1.06,1.27-.02-.02.08-.16.27-.42,19.29-29.95,32.11-64.44,36.52-101.52-6.52-3.33-14.31-5.18-22.97-5.91l4.11,29.44Z"/>
      <path class="cls-1" d="m289.49,313.98c.42-.63,1.56-1.17,3.79-1.53,1.37-.22,8.06-1.71,20,1,2.29.52,5.82-3.69,8-3,1.83.58,3.23,2.55,6,5,.48.42-.56,2.72,0,3,2,1,6.91,2.33,8,3,1.64,1.01,3.88.49,5,1,3.67,1.66,4.03,2.29,5,2,37.28-11.11,88.91-27.92,125.24-24.88l-6.34-45.34-43.54,6.24-19.76,4.37-14.9,3.77-6.77,2.2c-80.07-26.64-175.06-16.17-175.06-16.17l-12.87,15.21-16.91,26.99,12.16,1.15s74.09,4.93,102.96,16Z"/>
      <path class="cls-2" d="m289.49,313.98c-28.87-11.07-102.96-16-102.96-16l-12.16-1.15-8.74,13.95,83.99,22.3,71.11-1.29c-10.59-4.82-18.39-8.93-21.57-12.3,1.88,1.99-11.55-2.66-9.65-5.51Z"/>
      <path class="cls-2" d="m299.14,319.48c-1.87-1.98-5.24-3.82-9.65-5.51-1.9,2.85,11.53,7.5,9.65,5.51Z"/>
      <path class="cls-2" d="m470.52,299.57c-36.32-3.05-87.95,13.77-125.24,24.88-.97.29-1.33-.34-5-2-1.12-.51-3.36.01-5-1-1.09-.67-6-2-8-3-.56-.28.48-2.58,0-3-2.77-2.45-4.17-4.42-6-5-2.18-.69-5.71,3.52-8,3-11.94-2.71-18.63-1.22-20-1-2.22.36-3.37.91-3.79,1.53,4.41,1.69,7.78,3.53,9.65,5.51,3.19,3.37,10.99,7.48,21.57,12.3l153.91-2.79-4.11-29.44Z"/>
    </g>
  </g>
</svg>