<?xml version="1.0" encoding="UTF-8"?>
<svg id="Layer_2" data-name="Layer 2" xmlns="http://www.w3.org/2000/svg" viewBox="0 0 531.1 553.52">
  <defs>
    <style>
      .cls-1 {
        fill: #f1c93b;
      }
    </style>
  </defs>
  <g id="Layer_1-2" data-name="Layer 1">
    <g>
      <path class="cls-1" d="m174.71,542.01c-45.75-13.64-87.6-39.47-121.03-74.71l.73-.69c33.31,35.11,75.01,60.85,120.59,74.43l-.29.96Z"/>
      <path class="cls-1" d="m254.35,553.52c-19.67,0-39.26-2.04-58.21-6.05l.21-.98c18.89,4,38.4,6.03,58.01,6.03,79.04,0,154.44-34.13,206.89-93.63l.75.66c-52.63,59.72-128.31,93.96-207.64,93.96Z"/>
      <path class="cls-1" d="m493.42,416.07l-.86-.51c24.56-41.99,37.55-89.99,37.55-138.81,0-61.15-19.69-119.11-56.93-167.62l.79-.61c37.38,48.68,57.13,106.85,57.13,168.23,0,48.99-13.03,97.17-37.68,139.31Z"/>
      <path class="cls-1" d="m423.6,59.19C374.77,21.12,316.25,1,254.35,1c-5.28,0-10.63.15-15.88.45l-.06-1c5.27-.3,10.64-.45,15.94-.45,62.12,0,120.86,20.19,169.86,58.4l-.62.79Z"/>
      <path class="cls-1" d="m.92,168.06l-.92-.4C35.42,85.41,108.64,25.05,195.87,6.22l.21.98C109.16,25.96,36.21,86.1.92,168.06Z"/>
      <path class="cls-1" d="m184.73,407.99c.09,4.35-.11,8.7-.37,13.05.4-2.83.63-5.66.74-8.43.06-1.49.13-3.05-.04-4.54-.11-.03-.22-.05-.33-.08Z"/>
      <path class="cls-1" d="m208.91,411.03c-1.54-.69-3.25-1.02-4.85-1.54-1.03-.33-1.63-1.03-1.91-1.83-.54.13-1.1.17-1.65.11.01.15.03.3.05.45.08,1.12.12,2.26.13,3.42.65-.41,1.43-.67,2.39-.67.8,0,1.48.18,2.06.47.63-.36,1.37-.6,2.28-.6.74,0,1.38.16,1.94.42-.14-.08-.28-.16-.43-.23Z"/>
      <path class="cls-1" d="m254.35,35.92C121.32,35.92,13.51,143.73,13.51,276.76c0,17.21,1.81,34.04,5.24,50.22,9.39,44.24,30.92,84.01,60.99,115.6,43.85,46.22,105.86,75.01,174.61,75.01,133.03,0,240.84-107.81,240.84-240.84S387.38,35.92,254.35,35.92Zm-32.23,382.42c-.37.69-1.07,1.14-1.79,1.38-.4.12-.8.14-1.2.05-.4-.02-.77-.14-1.11-.36-.3-.16-.53-.38-.73-.64-.38-.23-.71-.54-.97-.9-.48.55-1.2.92-2.15.92-1.36,0-2.23-.75-2.63-1.71-.55,1.61-1.93,2.89-4.14,2.89-.8,0-1.48-.18-2.06-.47-.63.36-1.37.6-2.28.6-1.12,0-2.02-.33-2.72-.87-.64,6.78-2.2,13.68-4.5,19.55-1.53,3.9-5.13,6.61-9.52,5.4-3.68-1.01-6.84-5.51-5.45-9.36-3.59,2.7-9.37,2.14-11.58-1.66-.04.02-.08.04-.12.06-3.74,1.38-8.12,2.07-11.87.51-.03,3.84-2.52,7.67-7.47,7.67-7.15,0-9.17-7.96-6.06-12.46-2.75-.92-4.97-3.26-5-7.02-.04-5.41-.73-12.88.84-19.04-3.48-.85-6.02-4.31-6.16-7.78-.04-.11-.09-.22-.12-.34-.23-1.14-.18-2.25.16-3.36.09-.3.2-.59.31-.88-.2-.89-.04-1.86.48-2.6.36-.79,1.05-1.41,2.08-1.56,0-.38.08-.74.25-1.07.12-.37.33-.69.62-.96.27-.29.59-.5.96-.62.36-.19.74-.27,1.15-.26h.06c.15,0,.3.04.45.06.47-.42,1.1-.7,1.92-.7.62,0,1.12.16,1.54.42.18-.24.4-.46.64-.66,0-.05-.03-.1-.03-.14,0-.59.48-1.01,1.04-1.04,1.15-.08,2.32-.44,3.5-.57.58-.06,1.16-.08,1.74-.11.48-.02,1.12-.06,1.51-.11.56-.08,1.12.13,1.29.73.02.08.03.16.03.24.16.11.33.22.47.35,2.5-.28,5.03-.32,7.54-.28,5.16.08,10.16.02,15.31-.36,4.31-.32,8.67-.56,12.93-.29.67-.47,1.52-.76,2.55-.76s1.84.28,2.5.73c.3-.06.61-.09.95-.09,1.16,0,2.08.37,2.78.94,2.79.27,5.62.84,8.29,1.49,3.61.88,8.89,2.62,8.7,7.25,0,.22-.04.41-.08.61,0,.06-.01.12-.02.18-.01.06-.02.11-.03.16-.11.58-.33,1.13-.64,1.62.45,1.48.21,3.18-.71,4.41-.57,2.38-1.79,4.61-4.1,5.76-.71.36-1.45.52-2.17.55-.1.1-.21.2-.3.3,1.68.5,3.37.97,4.96,1.74.95.46,1.69,1.06,2.36,1.73.93.11,1.82.67,2.34,1.47.34.52.66,1.05,1,1.56.09.13.17.26.26.39.02.01.24.29.26.32.1.11.2.22.31.32.2.21.36.44.49.68.42.22.81.48,1.24.87.03.03.06.07.1.11.27.14.53.31.74.52.31.31.57.65.84,1.01.27.36.43.79.57,1.21.27.76.06,1.63-.3,2.31Z"/>
      <path class="cls-1" d="m155.89,425.5c-.8-.18-1.48-.53-2.02-.99-.24.75-.59,1.42-1.03,2,.56.23,1.07.52,1.52.87.36-.73.88-1.39,1.53-1.87Z"/>
      <path class="cls-1" d="m161.19,411.62c2.7,0,5.39.05,8.08-.11.01-1.14.02-2.27,0-3.41-1.29.08-2.57.14-3.86.12-1.9-.03-3.78-.3-5.67-.5-.92-.1-3.63.12-5.03-.12-.13,1.14-.43,2.33-.49,3.47-.1,1.92-.09,3.84-.06,5.75.63-.31,1.4-.45,2.31-.35.11.01.23.03.34.04-.15-2.39,1.3-4.9,4.38-4.9Z"/>
    </g>
  </g>
</svg>