<?xml version="1.0" encoding="UTF-8"?>
<svg id="Layer_2" data-name="Layer 2" xmlns="http://www.w3.org/2000/svg" viewBox="0 0 481.68 481.68">
  <defs>
    <style>
      .cls-1 {
        fill: #f1c93b;
      }
    </style>
  </defs>
  <g id="Layer_1-2" data-name="Layer 1">
    <path class="cls-1" d="m240.84,0C107.81,0,0,107.81,0,240.84c0,17.21,1.81,34.04,5.24,50.22,9.39,44.24,30.92,84.01,60.99,115.6,43.85,46.22,105.86,75.01,174.61,75.01,133.03,0,240.84-107.81,240.84-240.84S373.87,0,240.84,0Zm-32.23,382.42c-.37.69-1.07,1.14-1.79,1.38-.4.12-.8.14-1.2.05-.4-.02-.77-.14-1.11-.36-.3-.16-.53-.38-.73-.64-.38-.23-.71-.54-.97-.9-.48.55-1.2.92-2.15.92-1.36,0-2.23-.75-2.63-1.71-.55,1.61-1.93,2.89-4.14,2.89-.8,0-1.48-.18-2.06-.47-.63.36-1.37.6-2.28.6-1.12,0-2.02-.33-2.72-.87-.64,6.78-2.2,13.68-4.5,19.55-1.53,3.9-5.13,6.61-9.52,5.4-3.68-1.01-6.84-5.51-5.45-9.36-3.59,2.7-9.37,2.14-11.58-1.66-.04.02-.08.04-.12.06-3.74,1.38-8.12,2.07-11.87.51-.03,3.84-2.52,7.67-7.47,7.67-7.15,0-9.17-7.96-6.06-12.46-2.75-.92-4.97-3.26-5-7.02-.04-5.41-.73-12.88.84-19.04-3.48-.85-6.02-4.31-6.16-7.78-.04-.11-.09-.22-.12-.34-.23-1.14-.18-2.25.16-3.36.09-.3.2-.59.31-.88-.2-.89-.04-1.86.48-2.6.36-.79,1.05-1.41,2.08-1.56,0-.38.08-.74.25-1.07.12-.37.33-.69.62-.96.27-.29.59-.5.96-.62.36-.19.74-.27,1.15-.26h.06c.15,0,.3.04.45.06.47-.42,1.1-.7,1.92-.7.62,0,1.12.16,1.54.42.18-.24.4-.46.64-.66,0-.05-.03-.1-.03-.14,0-.59.48-1.01,1.04-1.04,1.15-.08,2.32-.44,3.5-.57.58-.06,1.16-.08,1.74-.11.48-.02,1.12-.06,1.51-.11.56-.08,1.12.13,1.29.73.02.08.03.16.03.24.16.11.33.22.47.35,2.5-.28,5.03-.32,7.54-.28,5.16.08,10.16.02,15.31-.36,4.31-.32,8.67-.56,12.93-.29.67-.47,1.52-.76,2.55-.76s1.84.28,2.5.73c.3-.06.61-.09.95-.09,1.16,0,2.08.37,2.78.94,2.79.27,5.62.84,8.29,1.49,3.61.88,8.89,2.62,8.7,7.25,0,.22-.04.41-.08.61,0,.06-.01.12-.02.18-.01.06-.02.11-.03.16-.11.58-.33,1.13-.64,1.62.45,1.48.21,3.18-.71,4.41-.57,2.38-1.79,4.61-4.1,5.76-.71.36-1.45.52-2.17.55-.1.1-.21.2-.3.3,1.68.5,3.37.97,4.96,1.74.95.46,1.69,1.06,2.36,1.73.93.11,1.82.67,2.34,1.47.34.52.66,1.05,1,1.56.09.13.17.26.26.39.02.01.24.29.26.32.1.11.2.22.31.32.2.21.36.44.49.68.42.22.81.48,1.24.87.03.03.06.07.1.11.27.14.53.31.74.52.31.31.57.65.84,1.01.27.36.43.79.57,1.21.27.76.06,1.63-.3,2.31Z"/>
  </g>
</svg>